<svg width="53" height="19" viewBox="0 0 53 19" fill="none" xmlns="http://www.w3.org/2000/svg">
<path d="M4.384 18.144C3.216 18.144 2.304 17.84 1.648 17.232C0.992 16.608 0.664 15.64 0.664 14.328C0.664 13.224 0.88 12.008 1.312 10.68C1.744 9.352 2.448 8.208 3.424 7.248C4.4 6.272 5.64 5.784 7.144 5.784C8.904 5.784 9.784 6.552 9.784 8.088C9.784 8.984 9.528 9.808 9.016 10.56C8.504 11.312 7.824 11.92 6.976 12.384C6.128 12.832 5.224 13.088 4.264 13.152C4.232 13.504 4.216 13.744 4.216 13.872C4.216 15.2 4.712 15.864 5.704 15.864C6.152 15.864 6.632 15.744 7.144 15.504C7.656 15.264 8.12 14.96 8.536 14.592C8.104 16.96 6.72 18.144 4.384 18.144ZM4.432 12C5.04 11.984 5.608 11.784 6.136 11.4C6.68 11.016 7.112 10.528 7.432 9.936C7.768 9.328 7.936 8.696 7.936 8.04C7.936 7.384 7.736 7.056 7.336 7.056C6.776 7.056 6.216 7.568 5.656 8.592C5.112 9.6 4.704 10.736 4.432 12Z" fill="#532D40"/>
<path d="M15.5011 18.384C13.6931 18.384 12.3651 17.928 11.5171 17.016C10.6691 16.104 10.2451 14.592 10.2451 12.48C10.2451 10.8 10.5251 8.992 11.0851 7.056C11.6611 5.12 12.5731 3.464 13.8211 2.088C15.0851 0.695999 16.6851 -1.43051e-06 18.6211 -1.43051e-06C19.8211 -1.43051e-06 20.7891 0.263999 21.5251 0.792C22.2611 1.32 22.6291 2.128 22.6291 3.216C22.6291 3.904 22.4931 4.448 22.2211 4.848C21.9491 5.232 21.5251 5.424 20.9491 5.424C20.3731 5.424 19.9171 5.216 19.5811 4.8C19.8691 4.656 20.1251 4.368 20.3491 3.936C20.5731 3.504 20.6851 3.056 20.6851 2.592C20.6851 2.16 20.5651 1.808 20.3251 1.536C20.1011 1.264 19.7331 1.128 19.2211 1.128C18.3731 1.128 17.5651 1.712 16.7971 2.88C16.0291 4.032 15.4051 5.488 14.9251 7.248C14.4611 9.008 14.2291 10.704 14.2291 12.336C14.2291 13.552 14.4371 14.48 14.8531 15.12C15.2691 15.76 16.0211 16.08 17.1091 16.08C18.0531 16.08 18.9251 15.872 19.7251 15.456C20.5251 15.04 21.2131 14.448 21.7891 13.68L22.3411 13.92C21.9411 14.928 21.3491 15.768 20.5651 16.44C19.7811 17.112 18.9411 17.608 18.0451 17.928C17.1491 18.232 16.3011 18.384 15.5011 18.384ZM24.5988 18.144C23.6868 18.144 22.9268 17.832 22.3188 17.208C21.7107 16.584 21.4067 15.608 21.4067 14.28C21.4067 13.096 21.6388 11.856 22.1028 10.56C22.5828 9.248 23.2868 8.144 24.2148 7.248C25.1588 6.336 26.2788 5.88 27.5748 5.88C28.2308 5.88 28.7188 5.992 29.0388 6.216C29.3588 6.44 29.5188 6.736 29.5188 7.104V7.272L29.7828 6H33.2388L31.5108 14.16C31.4468 14.4 31.4148 14.656 31.4148 14.928C31.4148 15.616 31.7428 15.96 32.3988 15.96C32.8468 15.96 33.2308 15.752 33.5508 15.336C33.8868 14.92 34.1508 14.376 34.3428 13.704H35.3508C34.7588 15.432 34.0228 16.608 33.1428 17.232C32.2788 17.84 31.4068 18.144 30.5268 18.144C29.8548 18.144 29.3108 17.96 28.8948 17.592C28.4948 17.208 28.2548 16.656 28.1748 15.936C27.7108 16.592 27.1908 17.128 26.6148 17.544C26.0548 17.944 25.3828 18.144 24.5988 18.144ZM26.1588 15.816C26.5588 15.816 26.9508 15.632 27.3348 15.264C27.7348 14.88 28.0068 14.36 28.1508 13.704L29.3028 8.28C29.3028 8.072 29.2228 7.872 29.0628 7.68C28.9028 7.472 28.6548 7.368 28.3188 7.368C27.6788 7.368 27.1028 7.744 26.5908 8.496C26.0788 9.232 25.6788 10.128 25.3908 11.184C25.1028 12.224 24.9588 13.144 24.9588 13.944C24.9588 14.744 25.0708 15.256 25.2948 15.48C25.5348 15.704 25.8228 15.816 26.1588 15.816ZM35.9836 6H39.4396L39.1276 7.488C39.6716 7.008 40.1596 6.64 40.5916 6.384C41.0396 6.128 41.5196 6 42.0316 6C42.5436 6 42.9436 6.176 43.2316 6.528C43.5356 6.88 43.6876 7.304 43.6876 7.8C43.6876 8.264 43.5356 8.672 43.2316 9.024C42.9276 9.376 42.5036 9.552 41.9596 9.552C41.6076 9.552 41.3676 9.472 41.2396 9.312C41.1276 9.136 41.0396 8.888 40.9756 8.568C40.9276 8.36 40.8796 8.208 40.8316 8.112C40.7836 8.016 40.6956 7.968 40.5676 7.968C40.2316 7.968 39.9436 8.04 39.7036 8.184C39.4796 8.312 39.1836 8.544 38.8156 8.88L36.8956 18H33.4396L35.9836 6ZM46.759 18.144C45.591 18.144 44.679 17.84 44.023 17.232C43.367 16.608 43.039 15.64 43.039 14.328C43.039 13.224 43.255 12.008 43.687 10.68C44.119 9.352 44.823 8.208 45.799 7.248C46.775 6.272 48.015 5.784 49.519 5.784C51.279 5.784 52.159 6.552 52.159 8.088C52.159 8.984 51.903 9.808 51.391 10.56C50.879 11.312 50.199 11.92 49.351 12.384C48.503 12.832 47.599 13.088 46.639 13.152C46.607 13.504 46.591 13.744 46.591 13.872C46.591 15.2 47.087 15.864 48.079 15.864C48.527 15.864 49.007 15.744 49.519 15.504C50.031 15.264 50.495 14.96 50.911 14.592C50.479 16.96 49.095 18.144 46.759 18.144ZM46.807 12C47.415 11.984 47.983 11.784 48.511 11.4C49.055 11.016 49.487 10.528 49.807 9.936C50.143 9.328 50.311 8.696 50.311 8.04C50.311 7.384 50.111 7.056 49.711 7.056C49.151 7.056 48.591 7.568 48.031 8.592C47.487 9.6 47.079 10.736 46.807 12Z" fill="#D92682"/>
</svg>
